<svg xmlns="http://www.w3.org/2000/svg" xmlns:xlink="http://www.w3.org/1999/xlink" width="219" height="40" viewBox="0 0 219 40"><defs><path id="a" d="M52.32 951l3.3 25.5h-4.51l-.76-6.91h-9.16l-3.68 6.91H33L47.11 951zm-9.4 15.3h7.09l-1.14-11.2h-.08z"/><path id="b" d="M97.96 968.7c-1.19 5.62-5.1 8.21-10.57 8.21-5.25 0-8.32-2.59-7.14-8.21l3.74-17.7h4.33l-3.74 17.7c-.62 2.93.06 5.14 3.46 5.14 3.36 0 4.98-2.21 5.59-5.14l3.74-17.7h4.33z"/><path id="c" d="M112.79 955.1h.08l1.14 11.2h-7.09zM97 976.5h4.51l3.68-6.91h9.16l.76 6.91h4.51l-3.3-25.5h-5.21z"/><path id="d" d="M136.71 975.84a20.96 20.96 0 0 1-7.26 1.48c-7.43 0-9.59-5.32-7.91-13.27 1.58-7.5 5.52-13.05 12.81-13.05 5.91 0 7.84 3.44 7.01 7.39h-4.81c.43-1.99.47-4.32-2.85-4.32-4.48 0-6.41 5.32-7.25 9.31-1.29 6.1-.49 10.54 4.72 10.54 2.85 0 5.56-1.48 6.35-1.89z"/><path id="e" d="M145.39 951h14.89l-.69 3.29h-10.57l-1.56 7.36h10.02l-.69 3.28h-10.02l-1.75 8.28h10.87l-.7 3.29H140z"/><path id="f" d="M163.39 951h4.32l-4.69 22.21h10.01l-.69 3.29H158z"/><path id="g" d="M69.71 953.64c4.36 0 4.56 5.09 3.41 10.52-1.1 5.21-3.23 10.55-7.59 10.55-4.4 0-4.6-5.34-3.5-10.55 1.15-5.43 3.28-10.52 7.68-10.52zm3.6 26.9c-3.31 0-5.72-2.2-9.4-2.2l-2.12.08 4.74-1.44 1.12-.29c6.07-.93 8.57-4.92 10.6-12.18 2.04-7.32.05-13.51-7.89-13.51-7.99 0-11.53 5.73-13.09 13.16-1.37 6.48-.69 11.69 5.36 12.61-3 .74-5.91 1.7-8.93 2.28-1.52.26-4.7.72-4.7 2.71 0 .98 1.14 1.28 1.99 1.28 2.62 0 3.85-2.84 5.84-2.84 3.05 0 7.16 5.04 12.2 5.04 2.92 0 5.59-1.15 7.79-3.05.89-.76 2.63-2.58 2.63-3.94 0-.3-.26-.59-.55-.59-.81 0-1.7 2.88-5.59 2.88z"/><path id="h" d="M180.66 951h14.42l-.73 3.29h-10.1l-1.63 7.36h9.54l-.73 3.29h-9.54l-2.56 11.57H175z"/><path id="i" d="M197.75 974.53c-2.96 0-2.73-3.03-2-6.32.73-3.29 1.84-6.33 4.8-6.33s2.73 3.04 2 6.33-1.85 6.32-4.8 6.32zm-6.37-6.32c-1.28 5.76.66 9.2 5.73 9.2 5.06 0 8.52-3.44 9.8-9.2 1.28-5.77-.66-9.21-5.72-9.21-5.07 0-8.53 3.44-9.81 9.21z"/><path id="j" d="M213.91 974.53c-1.4 0-2.01-.74-1.71-2.11.52-2.37 3.89-3.18 6.55-3.18-.54 2.4-2.17 5.29-4.84 5.29zm3.11 2.48h3.92l2.78-12.54c.8-3.58-.82-5.47-5.18-5.47-4.47 0-7.18 2.22-7.93 5.58h3.99c.26-1.18 1.05-2.7 3.3-2.7 2.03 0 2.15 1.48 1.76 3.22l-.38 1.74c-2.46.07-9.86.11-11.16 5.95-.63 2.85 1.2 4.62 4.16 4.62 2.81 0 4.31-1.29 5.12-2.44h.07z"/><path id="k" d="M227.9 959.41h4.11l-.6 2.69h.07c.73-1.1 2.43-3.1 5.31-3.1 2.11 0 3.68 1.07 3.66 3.51h.07c.82-1.33 2.93-3.51 5.74-3.51 2.58 0 4.37 1.77 3.48 5.81l-2.7 12.2h-4.11l2.23-10.06c.8-3.59.54-4.11-.9-4.11-2.37 0-4.39 3.78-5 6.55l-1.69 7.62h-4.1l2.23-10.06c.79-3.59.54-4.11-.91-4.11-2.36 0-4.38 3.78-5 6.55l-1.68 7.62H224z"/></defs><desc>Generated with Avocode.</desc><g transform="translate(-32 -950)"><use fill="#275a90" xlink:href="#a"/></g><g transform="translate(-32 -950)"><use fill="#275a90" xlink:href="#b"/></g><g transform="translate(-32 -950)"><use fill="#275a90" xlink:href="#c"/></g><g transform="translate(-32 -950)"><use fill="#275a90" xlink:href="#d"/></g><g transform="translate(-32 -950)"><use fill="#275a90" xlink:href="#e"/></g><g transform="translate(-32 -950)"><use fill="#275a90" xlink:href="#f"/></g><g transform="translate(-32 -950)"><use fill="#275a90" xlink:href="#g"/></g><g transform="translate(-32 -950)"><use fill="#8a2183" xlink:href="#h"/></g><g transform="translate(-32 -950)"><use fill="#8a2183" xlink:href="#i"/></g><g transform="translate(-32 -950)"><use fill="#8a2183" xlink:href="#j"/></g><g transform="translate(-32 -950)"><use fill="#8a2183" xlink:href="#k"/></g><g transform="translate(-32 -950)"><text fill="#cdaed4" dominant-baseline="text-before-edge" font-family="Helvetica, Arial, sans-serif" font-size="14" font-style="none" font-weight="700" style="font-kerning:normal" transform="translate(81 975)"/></g></svg>