<svg xmlns="http://www.w3.org/2000/svg" xmlns:xlink="http://www.w3.org/1999/xlink" width="35" height="35" viewBox="0 0 35 35"><defs><path id="a" d="M1125 301.5a17.5 17.5 0 1 1 35 0 17.5 17.5 0 0 1-35 0z"/><path id="b" d="M1140.13 308.61c-.43 0-.85-.17-1.16-.48l-5.47-5.37a1.7 1.7 0 0 1-.03-2.38c.64-.66 1.7-.68 2.36-.03l3.99 3.93c1.6-2.3 4.94-6.35 10.62-10.01.77-.51 1.8-.28 2.3.5a1.7 1.7 0 0 1-.51 2.33c-7.63 4.92-10.6 10.55-10.62 10.6-.25.48-.7.8-1.22.89l-.26.02z"/></defs><desc>Generated with Avocode.</desc><g transform="translate(-1125 -284)"><use fill="#76bb0a" xlink:href="#a"/></g><g transform="translate(-1125 -284)"><use fill="#fff" xlink:href="#b"/></g></svg>