<svg xmlns="http://www.w3.org/2000/svg" xmlns:xlink="http://www.w3.org/1999/xlink" width="32" height="32" viewBox="0 0 32 32"><defs><path id="a" d="M56.31 25.28c0 .34-.27.62-.62.62H41.22a.62.62 0 0 1-.62-.62v-.07c0-.11.07-.21.17-.24l7.49-2.5a.65.65 0 0 1 .39 0l7.49 2.5c.11.03.17.13.17.23zm-3.49 2.04c0-.35.28-.62.62-.62h1.38c.34 0 .62.27.62.62v10.25c0 .34-.28.62-.62.62h-1.38a.62.62 0 0 1-.62-.62zm-5.63 0c0-.35.28-.62.62-.62h1.38c.34 0 .62.27.62.62v10.25c0 .34-.28.62-.62.62h-1.38a.62.62 0 0 1-.62-.62zm-5.72 0c0-.35.28-.62.62-.62h1.38c.34 0 .62.27.62.62v10.25c0 .34-.28.62-.62.62h-1.38a.62.62 0 0 1-.62-.62zm14.41 12.82c0 .34-.28.62-.62.62h-13.6a.62.62 0 0 1-.62-.62v-.51a.6.6 0 0 1 .62-.61h13.6c.34 0 .62.27.62.61zM33 32.46a15.46 15.46 0 1 0 30.91-.01 15.46 15.46 0 0 0-30.91.01z"/></defs><desc>Generated with Avocode.</desc><g transform="translate(-32 -16)"><use fill="#fff" xlink:href="#a"/></g></svg>