<svg xmlns="http://www.w3.org/2000/svg" xmlns:xlink="http://www.w3.org/1999/xlink" width="152" height="32" viewBox="0 0 152 32"><defs><path id="a" d="M56.31 25.28c0 .34-.27.62-.62.62H41.22a.62.62 0 0 1-.62-.62v-.07c0-.11.07-.21.17-.24l7.49-2.5a.65.65 0 0 1 .39 0l7.49 2.5c.11.03.17.13.17.23zm-3.49 2.04c0-.35.28-.62.62-.62h1.38c.34 0 .62.27.62.62v10.25c0 .34-.28.62-.62.62h-1.38a.62.62 0 0 1-.62-.62zm-5.63 0c0-.35.28-.62.62-.62h1.38c.34 0 .62.27.62.62v10.25c0 .34-.28.62-.62.62h-1.38a.62.62 0 0 1-.62-.62zm-5.72 0c0-.35.28-.62.62-.62h1.38c.34 0 .62.27.62.62v10.25c0 .34-.28.62-.62.62h-1.38a.62.62 0 0 1-.62-.62zm14.41 12.82c0 .34-.28.62-.62.62h-13.6a.62.62 0 0 1-.62-.62v-.51a.6.6 0 0 1 .62-.61h13.6c.34 0 .62.27.62.61zM33 32.46a15.46 15.46 0 1 0 30.91-.01 15.46 15.46 0 0 0-30.91.01z"/><path id="b" d="M79.26 23c2.46 0 4.59.77 6.44 2.21l-2.08 2.59a6.7 6.7 0 0 0-4.29-1.62c-3.29 0-5.45 2.26-5.45 5.72 0 3.58 2.1 5.92 5.45 5.92 1.78 0 3.2-.67 4.39-1.82L86 38.39A9.68 9.68 0 0 1 79.13 41C73.7 41 70 37.2 70 31.9c0-5.15 3.83-8.9 9.26-8.9"/><path id="c" d="M93.54 38.25c-1.91 0-2.97-1.72-2.97-4.36 0-2.47 1.18-4.12 2.97-4.12 1.73 0 2.89 1.65 2.89 4.12 0 2.64-1.06 4.36-2.89 4.36zm0-11.25C89.8 27 87 29.72 87 33.86c0 4.42 2.63 7.14 6.54 7.14 3.85 0 6.46-2.72 6.46-7.14 0-4.14-2.77-6.86-6.46-6.86z"/><path id="d" d="M103 27.33h3.46l.17 1.58a5.67 5.67 0 0 1 4.09-1.91c3 0 4.28 1.88 4.28 4.96V41h-3.68v-9.14c0-1.22-.5-2.06-1.76-2.06-1.12 0-2.1.59-2.9 1.6V41H103z"/><path id="e" d="M116 27h3.67l2.88 9.15h.05l2.88-9.15H129l-4.53 13h-3.97z"/><path id="f" d="M134.99 38.38c-.89 0-1.49-.55-1.49-1.35 0-1.7 1.95-2.22 3.94-2.34v2.57a3.16 3.16 0 0 1-2.45 1.12zm2.45-5.71c-4.78.34-7.44 1.87-7.44 4.79 0 2.12 1.58 3.54 3.84 3.54 1.73 0 2.93-.67 4.01-1.87.72 1.27 1.73 1.64 4.15 1.64v-2.52c-.65 0-1.06-.32-1.06-1.04v-5.59c0-2.75-1.44-4.62-5.13-4.62-1.75 0-3.77.62-5.5 1.52l1.25 2.7c1.58-.8 2.88-1.33 4.1-1.33 1.23 0 1.78.6 1.78 1.6z"/><path id="g" d="M148.64 26.45H143V23h15v3.45h-5.67V41h-3.69z"/><path id="h" d="M160.89 32.62c.36-1.94 1.56-2.99 3.1-2.99 1.79 0 2.45 1.3 2.45 2.99zm2.99-5.62c-3.81 0-6.88 2.63-6.88 6.91 0 4.48 2.87 7.09 6.91 7.09 2.05 0 3.97-.6 5.65-1.74L168 36.95a7.39 7.39 0 0 1-3.81 1.14c-2.07 0-3.17-1.12-3.38-3.38h9.06c.08-.4.13-1.1.13-1.62 0-3.58-2.18-6.09-6.12-6.09z"/><path id="i" d="M178.97 27c1.66 0 3.35.5 4.85 1.65l-1.89 2.37a4.63 4.63 0 0 0-2.86-1.05c-1.81 0-3.29 1.4-3.29 3.94 0 2.67 1.45 4.15 3.29 4.15a4.3 4.3 0 0 0 2.89-1.1l2.04 2.12a7.32 7.32 0 0 1-5.03 1.92c-3.98 0-6.97-2.62-6.97-7.09 0-4.29 2.96-6.91 6.97-6.91"/></defs><desc>Generated with Avocode.</desc><g transform="translate(-32 -16)"><use fill="#fff" xlink:href="#a"/></g><g transform="translate(-32 -16)"><use fill="#fff" xlink:href="#b"/></g><g transform="translate(-32 -16)"><use fill="#fff" xlink:href="#c"/></g><g transform="translate(-32 -16)"><use fill="#fff" xlink:href="#d"/></g><g transform="translate(-32 -16)"><use fill="#fff" xlink:href="#e"/></g><g transform="translate(-32 -16)"><use fill="#fff" xlink:href="#f"/></g><g transform="translate(-32 -16)"><use fill="#fff" xlink:href="#g"/></g><g transform="translate(-32 -16)"><use fill="#fff" xlink:href="#h"/></g><g transform="translate(-32 -16)"><use fill="#fff" xlink:href="#i"/></g></svg>