<?xml version="1.0" encoding="utf-8"?>
<!-- Generator: Adobe Illustrator 16.0.2, SVG Export Plug-In . SVG Version: 6.00 Build 0)  -->
<!DOCTYPE svg PUBLIC "-//W3C//DTD SVG 1.1//EN" "http://www.w3.org/Graphics/SVG/1.1/DTD/svg11.dtd">
<svg version="1.1" id="Layer_1" xmlns="http://www.w3.org/2000/svg" xmlns:xlink="http://www.w3.org/1999/xlink" x="0px" y="0px"
	 width="23px" height="23px" viewBox="0 0 23 23" enable-background="new 0 0 23 23" xml:space="preserve">
<desc>Generated with Avocode.</desc>
<g transform="translate(-150 -527)">
	<g>
		<path id="a" fill="#76BB0A" d="M150,538.5c0-6.351,5.149-11.5,11.5-11.5c6.352,0,11.5,5.149,11.5,11.5
			c0,6.352-5.148,11.5-11.5,11.5C155.149,550,150,544.852,150,538.5z"/>
	</g>
</g>
<g transform="translate(-150 -527)">
	<g>
		<path id="b" fill="#FFFFFF" d="M154,538.5c0-0.83,0.67-1.5,1.5-1.5h12c0.828,0,1.5,0.671,1.5,1.5c0,0.828-0.672,1.5-1.5,1.5h-12
			C154.671,540,154,539.328,154,538.5z"/>
	</g>
</g>
<g transform="translate(-150 -527)">
	<g>
		<path id="b_1_" fill="#FFFFFF" d="M154,538.5c0-0.83,0.67-1.5,1.5-1.5h12c0.828,0,1.5,0.671,1.5,1.5c0,0.828-0.672,1.5-1.5,1.5
			h-12C154.671,540,154,539.328,154,538.5z"/>
	</g>
</g>
<g transform="translate(-150 -527)">
	<g>
		<path id="b_2_" fill="#FFFFFF" d="M161.5,546c-0.83,0-1.5-0.67-1.5-1.5v-12c0-0.828,0.671-1.5,1.5-1.5c0.828,0,1.5,0.672,1.5,1.5
			v12C163,545.328,162.328,546,161.5,546z"/>
	</g>
</g>
</svg>
