<svg xmlns="http://www.w3.org/2000/svg" xmlns:xlink="http://www.w3.org/1999/xlink" width="35" height="35" viewBox="0 0 35 35"><defs><path id="a" d="M1160 419.5a17.5 17.5 0 1 1-35.01-.01 17.5 17.5 0 0 1 35.01.01zm-23.25 5.14a1.21 1.21 0 0 0-2.42 0 1.2 1.2 0 1 0 2.42 0zm0-5.14a1.2 1.2 0 1 0-2.42 0 1.2 1.2 0 0 0 2.42 0zm0-5.15a1.21 1.21 0 0 0-2.42 0 1.2 1.2 0 1 0 2.42 0zm15.13 10.22a1.2 1.2 0 0 0-1.21-1.21h-11.33a1.2 1.2 0 1 0 0 2.42h11.33a1.2 1.2 0 0 0 1.21-1.21zm0-5.11a1.2 1.2 0 0 0-1.21-1.21h-11.33a1.2 1.2 0 1 0 0 2.42h11.33a1.2 1.2 0 0 0 1.21-1.21zm0-5.1a1.2 1.2 0 0 0-1.21-1.21h-11.33a1.2 1.2 0 1 0 0 2.42h11.33c.67 0 1.21-.55 1.21-1.21z"/></defs><desc>Generated with Avocode.</desc><g transform="translate(-1125 -402)"><use fill="#9b9b9b" xlink:href="#a"/></g></svg>